<mxfile host="app.diagrams.net" modified="2024-01-29T06:07:43.373Z" agent="Mozilla/5.0 (Windows NT 10.0; Win64; x64) AppleWebKit/537.36 (KHTML, like Gecko) Chrome/121.0.0.0 Safari/537.36" etag="qnoogg9qXW5zGxfy8hoy" version="23.0.2" type="device">
  <diagram name="페이지-1" id="IaQlJuhT9XPAPFIF5odQ">
    <mxGraphModel dx="2451" dy="1342" grid="1" gridSize="10" guides="1" tooltips="1" connect="1" arrows="1" fold="1" page="1" pageScale="1" pageWidth="827" pageHeight="1169" math="0" shadow="0">
      <root>
        <mxCell id="0" />
        <mxCell id="1" parent="0" />
        <mxCell id="QV_A89bPjgnbS8Glzwyx-54" style="rounded=0;orthogonalLoop=1;jettySize=auto;html=1;entryX=0.5;entryY=0;entryDx=0;entryDy=0;strokeWidth=3;strokeColor=#A50040;fillColor=#d80073;exitX=0.304;exitY=0.778;exitDx=0;exitDy=0;exitPerimeter=0;" parent="1" source="Sh4X8BYQqUh-lUargA7i-19" target="QV_A89bPjgnbS8Glzwyx-43" edge="1">
          <mxGeometry relative="1" as="geometry">
            <mxPoint x="1234.5200000000004" y="1020" as="sourcePoint" />
          </mxGeometry>
        </mxCell>
        <mxCell id="QV_A89bPjgnbS8Glzwyx-55" style="rounded=0;orthogonalLoop=1;jettySize=auto;html=1;strokeWidth=3;strokeColor=#A50040;fillColor=#d80073;" parent="1" source="Sh4X8BYQqUh-lUargA7i-19" target="QV_A89bPjgnbS8Glzwyx-45" edge="1">
          <mxGeometry relative="1" as="geometry">
            <mxPoint x="1244.0373926483198" y="1020" as="sourcePoint" />
          </mxGeometry>
        </mxCell>
        <mxCell id="QV_A89bPjgnbS8Glzwyx-59" style="rounded=0;orthogonalLoop=1;jettySize=auto;html=1;strokeWidth=3;strokeColor=#A50040;fillColor=#d80073;exitX=0.594;exitY=0.88;exitDx=0;exitDy=0;exitPerimeter=0;" parent="1" source="Sh4X8BYQqUh-lUargA7i-19" target="QV_A89bPjgnbS8Glzwyx-50" edge="1">
          <mxGeometry relative="1" as="geometry">
            <mxPoint x="1274.4064774732005" y="1020" as="sourcePoint" />
          </mxGeometry>
        </mxCell>
        <mxCell id="QV_A89bPjgnbS8Glzwyx-60" style="rounded=0;orthogonalLoop=1;jettySize=auto;html=1;strokeWidth=3;strokeColor=#A50040;fillColor=#d80073;exitX=0.645;exitY=0.836;exitDx=0;exitDy=0;exitPerimeter=0;" parent="1" source="Sh4X8BYQqUh-lUargA7i-19" target="QV_A89bPjgnbS8Glzwyx-51" edge="1">
          <mxGeometry relative="1" as="geometry">
            <mxPoint x="1281.8130351268433" y="1020" as="sourcePoint" />
          </mxGeometry>
        </mxCell>
        <mxCell id="QV_A89bPjgnbS8Glzwyx-62" style="rounded=0;orthogonalLoop=1;jettySize=auto;html=1;entryX=0.5;entryY=0;entryDx=0;entryDy=0;strokeWidth=3;strokeColor=#A50040;fillColor=#d80073;exitX=1;exitY=1;exitDx=0;exitDy=0;" parent="1" source="Sh4X8BYQqUh-lUargA7i-19" target="QV_A89bPjgnbS8Glzwyx-53" edge="1">
          <mxGeometry relative="1" as="geometry">
            <mxPoint x="1300.3600000000001" y="1020" as="sourcePoint" />
          </mxGeometry>
        </mxCell>
        <mxCell id="QV_A89bPjgnbS8Glzwyx-43" value="일련번호" style="ellipse;whiteSpace=wrap;html=1;align=center;fontStyle=4;strokeWidth=3;strokeColor=#A50040;fillColor=#d80073;fontColor=#ffffff;" parent="1" vertex="1">
          <mxGeometry x="925" y="1160" width="100" height="40" as="geometry" />
        </mxCell>
        <mxCell id="QV_A89bPjgnbS8Glzwyx-45" value="거래일자" style="ellipse;whiteSpace=wrap;html=1;align=center;strokeWidth=3;strokeColor=#A50040;fillColor=#d80073;fontColor=#ffffff;" parent="1" vertex="1">
          <mxGeometry x="1025" y="1160" width="100" height="40" as="geometry" />
        </mxCell>
        <mxCell id="QV_A89bPjgnbS8Glzwyx-46" value="거래시각" style="ellipse;whiteSpace=wrap;html=1;align=center;strokeWidth=3;strokeColor=#A50040;fillColor=#d80073;fontColor=#ffffff;" parent="1" vertex="1">
          <mxGeometry x="1125" y="1160" width="100" height="40" as="geometry" />
        </mxCell>
        <mxCell id="QV_A89bPjgnbS8Glzwyx-50" value="거래구분" style="ellipse;whiteSpace=wrap;html=1;align=center;strokeWidth=3;strokeColor=#A50040;fillColor=#d80073;fontColor=#ffffff;" parent="1" vertex="1">
          <mxGeometry x="1230" y="1160" width="100" height="40" as="geometry" />
        </mxCell>
        <mxCell id="QV_A89bPjgnbS8Glzwyx-51" value="수량" style="ellipse;whiteSpace=wrap;html=1;align=center;strokeWidth=3;strokeColor=#A50040;fillColor=#d80073;fontColor=#ffffff;" parent="1" vertex="1">
          <mxGeometry x="1330" y="1160" width="100" height="40" as="geometry" />
        </mxCell>
        <mxCell id="QV_A89bPjgnbS8Glzwyx-52" value="매입단가" style="ellipse;whiteSpace=wrap;html=1;align=center;strokeWidth=3;strokeColor=#A50040;fillColor=#d80073;fontColor=#ffffff;" parent="1" vertex="1">
          <mxGeometry x="1433" y="1160" width="100" height="40" as="geometry" />
        </mxCell>
        <mxCell id="QV_A89bPjgnbS8Glzwyx-53" value="매출단가" style="ellipse;whiteSpace=wrap;html=1;align=center;strokeWidth=3;strokeColor=#A50040;fillColor=#d80073;fontColor=#ffffff;" parent="1" vertex="1">
          <mxGeometry x="1543" y="1160" width="100" height="40" as="geometry" />
        </mxCell>
        <mxCell id="QV_A89bPjgnbS8Glzwyx-61" style="rounded=0;orthogonalLoop=1;jettySize=auto;html=1;entryX=0.359;entryY=-0.011;entryDx=0;entryDy=0;entryPerimeter=0;strokeWidth=3;strokeColor=#A50040;fillColor=#d80073;exitX=0.688;exitY=0.807;exitDx=0;exitDy=0;exitPerimeter=0;" parent="1" source="Sh4X8BYQqUh-lUargA7i-19" target="QV_A89bPjgnbS8Glzwyx-52" edge="1">
          <mxGeometry relative="1" as="geometry">
            <mxPoint x="1290.4803654431798" y="1020" as="sourcePoint" />
          </mxGeometry>
        </mxCell>
        <mxCell id="QV_A89bPjgnbS8Glzwyx-64" style="rounded=0;orthogonalLoop=1;jettySize=auto;html=1;entryX=0.763;entryY=0.094;entryDx=0;entryDy=0;entryPerimeter=0;strokeWidth=3;strokeColor=#A50040;fillColor=#d80073;exitX=0.42;exitY=0.923;exitDx=0;exitDy=0;exitPerimeter=0;" parent="1" source="Sh4X8BYQqUh-lUargA7i-19" target="QV_A89bPjgnbS8Glzwyx-46" edge="1">
          <mxGeometry relative="1" as="geometry">
            <mxPoint x="1252.7777427490541" y="1020" as="sourcePoint" />
          </mxGeometry>
        </mxCell>
        <mxCell id="Sh4X8BYQqUh-lUargA7i-11" style="rounded=0;orthogonalLoop=1;jettySize=auto;html=1;entryX=0.5;entryY=0;entryDx=0;entryDy=0;strokeWidth=3;fillColor=#6a00ff;strokeColor=#3700CC;" edge="1" parent="1" source="Sh4X8BYQqUh-lUargA7i-2" target="Sh4X8BYQqUh-lUargA7i-3">
          <mxGeometry relative="1" as="geometry" />
        </mxCell>
        <mxCell id="Sh4X8BYQqUh-lUargA7i-12" style="rounded=0;orthogonalLoop=1;jettySize=auto;html=1;strokeWidth=3;fillColor=#6a00ff;strokeColor=#3700CC;" edge="1" parent="1" source="Sh4X8BYQqUh-lUargA7i-2" target="Sh4X8BYQqUh-lUargA7i-5">
          <mxGeometry relative="1" as="geometry" />
        </mxCell>
        <mxCell id="Sh4X8BYQqUh-lUargA7i-15" style="rounded=0;orthogonalLoop=1;jettySize=auto;html=1;strokeWidth=3;fillColor=#6a00ff;strokeColor=#3700CC;" edge="1" parent="1" source="Sh4X8BYQqUh-lUargA7i-2" target="Sh4X8BYQqUh-lUargA7i-6">
          <mxGeometry relative="1" as="geometry" />
        </mxCell>
        <mxCell id="Sh4X8BYQqUh-lUargA7i-16" style="rounded=0;orthogonalLoop=1;jettySize=auto;html=1;strokeWidth=3;fillColor=#6a00ff;strokeColor=#3700CC;" edge="1" parent="1" source="Sh4X8BYQqUh-lUargA7i-2" target="Sh4X8BYQqUh-lUargA7i-7">
          <mxGeometry relative="1" as="geometry" />
        </mxCell>
        <mxCell id="Sh4X8BYQqUh-lUargA7i-17" style="rounded=0;orthogonalLoop=1;jettySize=auto;html=1;strokeWidth=3;fillColor=#6a00ff;strokeColor=#3700CC;" edge="1" parent="1" source="Sh4X8BYQqUh-lUargA7i-2" target="Sh4X8BYQqUh-lUargA7i-8">
          <mxGeometry relative="1" as="geometry" />
        </mxCell>
        <mxCell id="Sh4X8BYQqUh-lUargA7i-2" value="상품" style="whiteSpace=wrap;html=1;align=center;strokeWidth=3;fillColor=#6a00ff;strokeColor=#3700CC;fontColor=#ffffff;" vertex="1" parent="1">
          <mxGeometry x="761" y="1160" width="100" height="40" as="geometry" />
        </mxCell>
        <mxCell id="Sh4X8BYQqUh-lUargA7i-3" value="상품코드" style="ellipse;whiteSpace=wrap;html=1;align=center;fontStyle=4;strokeWidth=3;fillColor=#6a00ff;strokeColor=#3700CC;fontColor=#ffffff;" vertex="1" parent="1">
          <mxGeometry x="540" y="1300" width="100" height="40" as="geometry" />
        </mxCell>
        <mxCell id="Sh4X8BYQqUh-lUargA7i-5" value="상품명" style="ellipse;whiteSpace=wrap;html=1;align=center;strokeWidth=3;fillColor=#6a00ff;strokeColor=#3700CC;fontColor=#ffffff;" vertex="1" parent="1">
          <mxGeometry x="650" y="1300" width="100" height="40" as="geometry" />
        </mxCell>
        <mxCell id="Sh4X8BYQqUh-lUargA7i-6" value="품목" style="ellipse;whiteSpace=wrap;html=1;align=center;strokeWidth=3;fillColor=#6a00ff;strokeColor=#3700CC;fontColor=#ffffff;" vertex="1" parent="1">
          <mxGeometry x="761" y="1300" width="100" height="40" as="geometry" />
        </mxCell>
        <mxCell id="Sh4X8BYQqUh-lUargA7i-7" value="규격" style="ellipse;whiteSpace=wrap;html=1;align=center;strokeWidth=3;fillColor=#6a00ff;strokeColor=#3700CC;fontColor=#ffffff;" vertex="1" parent="1">
          <mxGeometry x="871" y="1300" width="100" height="40" as="geometry" />
        </mxCell>
        <mxCell id="Sh4X8BYQqUh-lUargA7i-8" value="제조사" style="ellipse;whiteSpace=wrap;html=1;align=center;strokeWidth=3;fillColor=#6a00ff;strokeColor=#3700CC;fontColor=#ffffff;" vertex="1" parent="1">
          <mxGeometry x="984" y="1300" width="100" height="40" as="geometry" />
        </mxCell>
        <mxCell id="Sh4X8BYQqUh-lUargA7i-18" value="" style="edgeStyle=entityRelationEdgeStyle;fontSize=12;html=1;endArrow=ERoneToMany;rounded=0;exitX=0.75;exitY=0;exitDx=0;exitDy=0;entryX=0;entryY=0.5;entryDx=0;entryDy=0;fillColor=#dae8fc;strokeColor=#088EBF;" edge="1" parent="1" source="Sh4X8BYQqUh-lUargA7i-2" target="Sh4X8BYQqUh-lUargA7i-19">
          <mxGeometry width="100" height="100" relative="1" as="geometry">
            <mxPoint x="582" y="1080" as="sourcePoint" />
            <mxPoint x="1213" y="990" as="targetPoint" />
          </mxGeometry>
        </mxCell>
        <mxCell id="Sh4X8BYQqUh-lUargA7i-19" value="매입매출" style="shape=rhombus;perimeter=rhombusPerimeter;whiteSpace=wrap;html=1;align=center;" vertex="1" parent="1">
          <mxGeometry x="1200" y="960" width="120" height="60" as="geometry" />
        </mxCell>
        <mxCell id="Sh4X8BYQqUh-lUargA7i-21" value="상품(테이블)과 매입매출간에 관계설정&lt;br&gt;매입매출 테이블을 Relation 으로 변환&lt;br&gt;상품(테이블)의 상품코드 칼럼이&lt;br&gt;매입매출 Relation에 자동으로 추가된다" style="whiteSpace=wrap;html=1;" vertex="1" parent="1">
          <mxGeometry x="640" y="880" width="360" height="60" as="geometry" />
        </mxCell>
        <mxCell id="Sh4X8BYQqUh-lUargA7i-28" style="rounded=0;orthogonalLoop=1;jettySize=auto;html=1;" edge="1" parent="1" source="Sh4X8BYQqUh-lUargA7i-22" target="Sh4X8BYQqUh-lUargA7i-23">
          <mxGeometry relative="1" as="geometry" />
        </mxCell>
        <mxCell id="Sh4X8BYQqUh-lUargA7i-29" style="rounded=0;orthogonalLoop=1;jettySize=auto;html=1;" edge="1" parent="1" source="Sh4X8BYQqUh-lUargA7i-22" target="Sh4X8BYQqUh-lUargA7i-24">
          <mxGeometry relative="1" as="geometry" />
        </mxCell>
        <mxCell id="Sh4X8BYQqUh-lUargA7i-30" style="rounded=0;orthogonalLoop=1;jettySize=auto;html=1;entryX=0.5;entryY=0;entryDx=0;entryDy=0;" edge="1" parent="1" source="Sh4X8BYQqUh-lUargA7i-22" target="Sh4X8BYQqUh-lUargA7i-25">
          <mxGeometry relative="1" as="geometry" />
        </mxCell>
        <mxCell id="Sh4X8BYQqUh-lUargA7i-31" style="rounded=0;orthogonalLoop=1;jettySize=auto;html=1;" edge="1" parent="1" source="Sh4X8BYQqUh-lUargA7i-22" target="Sh4X8BYQqUh-lUargA7i-26">
          <mxGeometry relative="1" as="geometry" />
        </mxCell>
        <mxCell id="Sh4X8BYQqUh-lUargA7i-32" style="rounded=0;orthogonalLoop=1;jettySize=auto;html=1;" edge="1" parent="1" source="Sh4X8BYQqUh-lUargA7i-22" target="Sh4X8BYQqUh-lUargA7i-27">
          <mxGeometry relative="1" as="geometry" />
        </mxCell>
        <mxCell id="Sh4X8BYQqUh-lUargA7i-22" value="거래처" style="whiteSpace=wrap;html=1;align=center;" vertex="1" parent="1">
          <mxGeometry x="1721" y="1160" width="100" height="40" as="geometry" />
        </mxCell>
        <mxCell id="Sh4X8BYQqUh-lUargA7i-23" value="거래처코드" style="ellipse;whiteSpace=wrap;html=1;align=center;fontStyle=4;" vertex="1" parent="1">
          <mxGeometry x="1510" y="1290" width="100" height="40" as="geometry" />
        </mxCell>
        <mxCell id="Sh4X8BYQqUh-lUargA7i-24" value="거래처명" style="ellipse;whiteSpace=wrap;html=1;align=center;" vertex="1" parent="1">
          <mxGeometry x="1614" y="1290" width="100" height="40" as="geometry" />
        </mxCell>
        <mxCell id="Sh4X8BYQqUh-lUargA7i-25" value="대표자명" style="ellipse;whiteSpace=wrap;html=1;align=center;" vertex="1" parent="1">
          <mxGeometry x="1721.5" y="1290" width="100" height="40" as="geometry" />
        </mxCell>
        <mxCell id="Sh4X8BYQqUh-lUargA7i-26" value="전화번호" style="ellipse;whiteSpace=wrap;html=1;align=center;" vertex="1" parent="1">
          <mxGeometry x="1824" y="1290" width="100" height="40" as="geometry" />
        </mxCell>
        <mxCell id="Sh4X8BYQqUh-lUargA7i-27" value="주소" style="ellipse;whiteSpace=wrap;html=1;align=center;" vertex="1" parent="1">
          <mxGeometry x="1928" y="1290" width="100" height="40" as="geometry" />
        </mxCell>
        <mxCell id="Sh4X8BYQqUh-lUargA7i-34" value="" style="edgeStyle=entityRelationEdgeStyle;fontSize=12;html=1;endArrow=ERoneToMany;rounded=0;entryX=1;entryY=0.5;entryDx=0;entryDy=0;fillColor=#dae8fc;strokeColor=#088EBF;" edge="1" parent="1" source="Sh4X8BYQqUh-lUargA7i-22" target="Sh4X8BYQqUh-lUargA7i-19">
          <mxGeometry width="100" height="100" relative="1" as="geometry">
            <mxPoint x="2010" y="1140" as="sourcePoint" />
            <mxPoint x="2233" y="900" as="targetPoint" />
          </mxGeometry>
        </mxCell>
      </root>
    </mxGraphModel>
  </diagram>
</mxfile>
